<?xml version="1.0" encoding="UTF-8"?> <svg xmlns="http://www.w3.org/2000/svg" xmlns:xlink="http://www.w3.org/1999/xlink" id="Capa_1" x="0px" y="0px" width="512px" height="512px" viewBox="0 0 47.566 47.566" style="enable-background:new 0 0 47.566 47.566;" xml:space="preserve"><g><g> <g> <path d="M28.514,29.426H15.115c-0.044,0-2.535,0.004-2.578,0.006c1.674-2.436,2.243-3.922,3.168-7.499l0.02-0.076 c0.034-0.202,0.051-0.381,0.051-0.538c0-0.635-0.632-1.084-1.188-1.338l-0.848-0.36c-1.646-0.338-2.279,1.564-2.279,1.564 c-1.588,5.258-2.094,6.012-4.438,7.672c-1.57,1.108-3.241,2.231-3.241,2.231c-0.819,0.537-1.481,0.804-1.481,1.627v11.938 c0,0.826,0.664,1.311,1.486,1.516c0,0,7.184,1.357,8.125,1.396c0.319,0,0.409,0,0.409,0h5.708c0.836,0,1.516-0.681,1.516-1.517 v-1.634c0-0.836-0.68-1.516-1.516-1.516h0.35c0.836,0,1.517-0.681,1.517-1.517v-1.637c0-0.586-0.338-1.099-0.827-1.351 c0.673-0.153,1.176-0.758,1.176-1.479v-1.635c0-0.484-0.229-0.918-0.585-1.195h8.857c0.836,0,1.516-0.68,1.516-1.514v-1.637 C30.027,30.107,29.348,29.426,28.514,29.426z" data-original="#000000" class="active-path" data-old_color="#000000" fill="#404040"></path> <path d="M43.784,1.397c0,0-7.183-1.358-8.125-1.397c-0.318,0-0.408,0-0.408,0h-5.709c-0.836,0-1.515,0.68-1.515,1.515v1.637 c0,0.836,0.679,1.516,1.515,1.516h-0.351c-0.834,0-1.516,0.679-1.516,1.515v1.638c0,0.586,0.338,1.098,0.827,1.349 c-0.672,0.154-1.176,0.758-1.176,1.478v1.637c0,0.483,0.229,0.918,0.584,1.193h-8.856c-0.837,0-1.517,0.681-1.517,1.516v1.637 c0,0.835,0.681,1.515,1.517,1.515h13.397c0.043,0,2.534-0.003,2.577-0.005c-1.674,2.436-2.243,3.92-3.168,7.498l-0.021,0.078 c-0.032,0.201-0.051,0.379-0.051,0.537c0,0.635,0.633,1.084,1.188,1.34l0.848,0.359c1.646,0.338,2.279-1.564,2.279-1.564 c1.588-5.257,2.093-6.011,4.438-7.671c1.568-1.11,3.24-2.233,3.24-2.233c0.82-0.537,1.482-0.803,1.482-1.627V2.915 C45.271,2.085,44.607,1.601,43.784,1.397z" data-original="#000000" class="active-path" data-old_color="#000000" fill="#404040"></path> </g> </g></g> </svg> 